<svg width="75" height="75" viewBox="0 0 75 75" fill="none" xmlns="http://www.w3.org/2000/svg">
<path d="M8.33333 0H0V8.33333H8.33333V0Z" fill="black"/>
<path d="M8.33333 16.6665H0V24.9998H8.33333V16.6665Z" fill="black"/>
<path d="M8.33333 33.3335H0V41.6668H8.33333V33.3335Z" fill="black"/>
<path d="M8.33333 50H0V58.3333H8.33333V50Z" fill="black"/>
<path d="M8.33333 66.6665H0V74.9998H8.33333V66.6665Z" fill="black"/>
<path d="M16.6663 8.3335H8.33301V16.6668H16.6663V8.3335Z" fill="black"/>
<path d="M16.6663 25H8.33301V33.3333H16.6663V25Z" fill="black"/>
<path d="M16.6663 41.6665H8.33301V49.9998H16.6663V41.6665Z" fill="black"/>
<path d="M16.6663 58.3335H8.33301V66.6668H16.6663V58.3335Z" fill="black"/>
<path d="M33.3333 8.3335H25V16.6668H33.3333V8.3335Z" fill="black"/>
<path d="M33.3333 25H25V33.3333H33.3333V25Z" fill="black"/>
<path d="M33.3333 41.6665H25V49.9998H33.3333V41.6665Z" fill="black"/>
<path d="M33.3333 58.3335H25V66.6668H33.3333V58.3335Z" fill="black"/>
<path d="M50.0003 8.3335H41.667V16.6668H50.0003V8.3335Z" fill="black"/>
<path d="M50.0003 25H41.667V33.3333H50.0003V25Z" fill="black"/>
<path d="M50.0003 41.6665H41.667V49.9998H50.0003V41.6665Z" fill="black"/>
<path d="M50.0003 58.3335H41.667V66.6668H50.0003V58.3335Z" fill="black"/>
<path d="M66.6663 8.3335H58.333V16.6668H66.6663V8.3335Z" fill="black"/>
<path d="M66.6663 25H58.333V33.3333H66.6663V25Z" fill="black"/>
<path d="M66.6663 41.6665H58.333V49.9998H66.6663V41.6665Z" fill="black"/>
<path d="M66.6663 58.3335H58.333V66.6668H66.6663V58.3335Z" fill="black"/>
<path d="M25.0003 0H16.667V8.33333H25.0003V0Z" fill="black"/>
<path d="M25.0003 16.6665H16.667V24.9998H25.0003V16.6665Z" fill="black"/>
<path d="M25.0003 33.3335H16.667V41.6668H25.0003V33.3335Z" fill="black"/>
<path d="M25.0003 50H16.667V58.3333H25.0003V50Z" fill="black"/>
<path d="M25.0003 66.6665H16.667V74.9998H25.0003V66.6665Z" fill="black"/>
<path d="M75.0003 0H66.667V8.33333H75.0003V0Z" fill="black"/>
<path d="M75.0003 16.6665H66.667V24.9998H75.0003V16.6665Z" fill="black"/>
<path d="M75.0003 33.3335H66.667V41.6668H75.0003V33.3335Z" fill="black"/>
<path d="M75.0003 50H66.667V58.3333H75.0003V50Z" fill="black"/>
<path d="M75.0003 66.6665H66.667V74.9998H75.0003V66.6665Z" fill="black"/>
<path d="M58.3333 0H50V8.33333H58.3333V0Z" fill="black"/>
<path d="M58.3333 16.6665H50V24.9998H58.3333V16.6665Z" fill="black"/>
<path d="M58.3333 33.3335H50V41.6668H58.3333V33.3335Z" fill="black"/>
<path d="M58.3333 50H50V58.3333H58.3333V50Z" fill="black"/>
<path d="M58.3333 66.6665H50V74.9998H58.3333V66.6665Z" fill="black"/>
<path d="M41.6663 0H33.333V8.33333H41.6663V0Z" fill="black"/>
<path d="M41.6663 16.6665H33.333V24.9998H41.6663V16.6665Z" fill="black"/>
<path d="M41.6663 33.3335H33.333V41.6668H41.6663V33.3335Z" fill="black"/>
<path d="M41.6663 50H33.333V58.3333H41.6663V50Z" fill="black"/>
<path d="M41.6663 66.6665H33.333V74.9998H41.6663V66.6665Z" fill="black"/>
</svg>
