<svg width="85" height="85" viewBox="0 0 85 85" fill="none" xmlns="http://www.w3.org/2000/svg">
<g clip-path="url(#clip0_23_46)">
<path d="M4.67866 37.4293L0 42.1079L4.67866 46.7866L9.35732 42.1079L4.67866 37.4293Z" fill="#C4C4C4"/>
<path d="M14.0361 46.7867L9.35742 51.4653L14.0361 56.144L18.7147 51.4653L14.0361 46.7867Z" fill="#C4C4C4"/>
<path d="M23.3935 56.1441L18.7148 60.8228L23.3935 65.5014L28.0722 60.8228L23.3935 56.1441Z" fill="#C4C4C4"/>
<path d="M32.7509 65.501L28.0723 70.1797L32.7509 74.8583L37.4296 70.1797L32.7509 65.501Z" fill="#C4C4C4"/>
<path d="M42.1083 74.8585L37.4297 79.5371L42.1083 84.2158L46.787 79.5371L42.1083 74.8585Z" fill="#C4C4C4"/>
<path d="M14.0361 37.4293L9.35742 42.1079L14.0361 46.7866L18.7147 42.1079L14.0361 37.4293Z" fill="#C4C4C4"/>
<path d="M23.3935 46.7867L18.7148 51.4653L23.3935 56.144L28.0722 51.4653L23.3935 46.7867Z" fill="#C4C4C4"/>
<path d="M32.7509 56.1436L28.0723 60.8223L32.7509 65.5009L37.4296 60.8223L32.7509 56.1436Z" fill="#C4C4C4"/>
<path d="M42.1083 65.501L37.4297 70.1797L42.1083 74.8583L46.787 70.1797L42.1083 65.501Z" fill="#C4C4C4"/>
<path d="M23.3935 28.0718L18.7148 32.7505L23.3935 37.4291L28.0722 32.7505L23.3935 28.0718Z" fill="#C4C4C4"/>
<path d="M32.7509 37.4293L28.0723 42.1079L32.7509 46.7866L37.4296 42.1079L32.7509 37.4293Z" fill="#C4C4C4"/>
<path d="M42.1074 46.7867L37.4287 51.4653L42.1074 56.144L46.786 51.4653L42.1074 46.7867Z" fill="#C4C4C4"/>
<path d="M51.4658 56.1441L46.7871 60.8228L51.4658 65.5014L56.1444 60.8228L51.4658 56.1441Z" fill="#C4C4C4"/>
<path d="M32.7509 18.7149L28.0723 23.3936L32.7509 28.0722L37.4296 23.3936L32.7509 18.7149Z" fill="#C4C4C4"/>
<path d="M42.1074 28.0718L37.4287 32.7505L42.1074 37.4291L46.786 32.7505L42.1074 28.0718Z" fill="#C4C4C4"/>
<path d="M51.4648 37.4293L46.7861 42.1079L51.4648 46.7866L56.1434 42.1079L51.4648 37.4293Z" fill="#C4C4C4"/>
<path d="M60.8222 46.7867L56.1436 51.4653L60.8222 56.144L65.5009 51.4653L60.8222 46.7867Z" fill="#C4C4C4"/>
<path d="M42.1083 9.35748L37.4297 14.0361L42.1083 18.7148L46.787 14.0361L42.1083 9.35748Z" fill="#C4C4C4"/>
<path d="M51.4648 18.7144L46.7861 23.3931L51.4648 28.0717L56.1434 23.3931L51.4648 18.7144Z" fill="#C4C4C4"/>
<path d="M60.8222 28.0718L56.1436 32.7505L60.8222 37.4291L65.5009 32.7505L60.8222 28.0718Z" fill="#C4C4C4"/>
<path d="M70.1796 37.4293L65.501 42.1079L70.1796 46.7866L74.8583 42.1079L70.1796 37.4293Z" fill="#C4C4C4"/>
<path d="M14.0361 28.0718L9.35742 32.7505L14.0361 37.4291L18.7147 32.7505L14.0361 28.0718Z" fill="#C4C4C4"/>
<path d="M23.3935 37.4293L18.7148 42.1079L23.3935 46.7866L28.0722 42.1079L23.3935 37.4293Z" fill="#C4C4C4"/>
<path d="M32.7509 46.7867L28.0723 51.4653L32.7509 56.144L37.4296 51.4653L32.7509 46.7867Z" fill="#C4C4C4"/>
<path d="M42.1083 56.1441L37.4297 60.8228L42.1083 65.5014L46.787 60.8228L42.1083 56.1441Z" fill="#C4C4C4"/>
<path d="M51.4648 65.501L46.7861 70.1797L51.4648 74.8583L56.1434 70.1797L51.4648 65.501Z" fill="#C4C4C4"/>
<path d="M42.1083 5.20789e-05L37.4297 4.67871L42.1083 9.35737L46.787 4.67871L42.1083 5.20789e-05Z" fill="#C4C4C4"/>
<path d="M51.4648 9.35747L46.7861 14.0361L51.4648 18.7148L56.1434 14.0361L51.4648 9.35747Z" fill="#C4C4C4"/>
<path d="M60.8222 18.7149L56.1436 23.3936L60.8222 28.0722L65.5009 23.3936L60.8222 18.7149Z" fill="#C4C4C4"/>
<path d="M70.1796 28.0718L65.501 32.7505L70.1796 37.4291L74.8583 32.7505L70.1796 28.0718Z" fill="#C4C4C4"/>
<path d="M79.5371 37.4293L74.8584 42.1079L79.5371 46.7866L84.2157 42.1079L79.5371 37.4293Z" fill="#C4C4C4"/>
<path d="M32.7509 9.35748L28.0723 14.0361L32.7509 18.7148L37.4296 14.0361L32.7509 9.35748Z" fill="#C4C4C4"/>
<path d="M42.1074 18.7144L37.4287 23.3931L42.1074 28.0717L46.786 23.3931L42.1074 18.7144Z" fill="#C4C4C4"/>
<path d="M51.4658 28.0718L46.7871 32.7505L51.4658 37.4291L56.1444 32.7505L51.4658 28.0718Z" fill="#C4C4C4"/>
<path d="M60.8222 37.4293L56.1436 42.1079L60.8222 46.7866L65.5009 42.1079L60.8222 37.4293Z" fill="#C4C4C4"/>
<path d="M70.1796 46.7867L65.501 51.4653L70.1796 56.144L74.8583 51.4653L70.1796 46.7867Z" fill="#C4C4C4"/>
<path d="M23.3935 18.7144L18.7148 23.3931L23.3935 28.0717L28.0722 23.3931L23.3935 18.7144Z" fill="#C4C4C4"/>
<path d="M32.7509 28.0718L28.0723 32.7505L32.7509 37.4291L37.4296 32.7505L32.7509 28.0718Z" fill="#C4C4C4"/>
<path d="M42.1083 37.4293L37.4297 42.1079L42.1083 46.7866L46.787 42.1079L42.1083 37.4293Z" fill="#C4C4C4"/>
<path d="M51.4658 46.7867L46.7871 51.4653L51.4658 56.144L56.1444 51.4653L51.4658 46.7867Z" fill="#C4C4C4"/>
<path d="M60.8222 56.1436L56.1436 60.8223L60.8222 65.5009L65.5009 60.8223L60.8222 56.1436Z" fill="#C4C4C4"/>
</g>
<defs>
<clipPath id="clip0_23_46">
<rect width="59.5496" height="59.5496" fill="white" transform="translate(0 42.1079) rotate(-45)"/>
</clipPath>
</defs>
</svg>
