<svg width="50" height="50" viewBox="0 0 50 50" fill="none" xmlns="http://www.w3.org/2000/svg">
<path d="M5.55556 0H0V5.55556H5.55556V0Z" fill="#272A31" fill-opacity="0.44"/>
<path d="M5.55556 11.1108H0V16.6664H5.55556V11.1108Z" fill="#272A31" fill-opacity="0.44"/>
<path d="M5.55556 22.2222H0V27.7777H5.55556V22.2222Z" fill="#272A31" fill-opacity="0.44"/>
<path d="M5.55556 33.3335H0V38.8891H5.55556V33.3335Z" fill="#272A31" fill-opacity="0.44"/>
<path d="M5.55556 44.4443H0V49.9999H5.55556V44.4443Z" fill="#272A31" fill-opacity="0.44"/>
<path d="M11.1112 5.55566H5.55566V11.1112H11.1112V5.55566Z" fill="#272A31" fill-opacity="0.44"/>
<path d="M11.1112 16.6665H5.55566V22.2221H11.1112V16.6665Z" fill="#272A31" fill-opacity="0.44"/>
<path d="M11.1112 27.7778H5.55566V33.3334H11.1112V27.7778Z" fill="#272A31" fill-opacity="0.44"/>
<path d="M11.1112 38.8892H5.55566V44.4447H11.1112V38.8892Z" fill="#272A31" fill-opacity="0.44"/>
<path d="M22.2225 5.55566H16.667V11.1112H22.2225V5.55566Z" fill="#272A31" fill-opacity="0.44"/>
<path d="M22.2225 16.6665H16.667V22.2221H22.2225V16.6665Z" fill="#272A31" fill-opacity="0.44"/>
<path d="M22.2225 27.7778H16.667V33.3334H22.2225V27.7778Z" fill="#272A31" fill-opacity="0.44"/>
<path d="M22.2225 38.8892H16.667V44.4447H22.2225V38.8892Z" fill="#272A31" fill-opacity="0.44"/>
<path d="M33.3329 5.55566H27.7773V11.1112H33.3329V5.55566Z" fill="#272A31" fill-opacity="0.44"/>
<path d="M33.3329 16.6665H27.7773V22.2221H33.3329V16.6665Z" fill="#272A31" fill-opacity="0.44"/>
<path d="M33.3329 27.7778H27.7773V33.3334H33.3329V27.7778Z" fill="#272A31" fill-opacity="0.44"/>
<path d="M33.3329 38.8892H27.7773V44.4447H33.3329V38.8892Z" fill="#272A31" fill-opacity="0.44"/>
<path d="M44.4442 5.55566H38.8887V11.1112H44.4442V5.55566Z" fill="#272A31" fill-opacity="0.44"/>
<path d="M44.4442 16.6665H38.8887V22.2221H44.4442V16.6665Z" fill="#272A31" fill-opacity="0.44"/>
<path d="M44.4442 27.7778H38.8887V33.3334H44.4442V27.7778Z" fill="#272A31" fill-opacity="0.44"/>
<path d="M44.4442 38.8892H38.8887V44.4447H44.4442V38.8892Z" fill="#272A31" fill-opacity="0.44"/>
<path d="M16.6669 0H11.1113V5.55556H16.6669V0Z" fill="#272A31" fill-opacity="0.44"/>
<path d="M16.6669 11.1108H11.1113V16.6664H16.6669V11.1108Z" fill="#272A31" fill-opacity="0.44"/>
<path d="M16.6669 22.2222H11.1113V27.7777H16.6669V22.2222Z" fill="#272A31" fill-opacity="0.44"/>
<path d="M16.6669 33.3335H11.1113V38.8891H16.6669V33.3335Z" fill="#272A31" fill-opacity="0.44"/>
<path d="M16.6669 44.4443H11.1113V49.9999H16.6669V44.4443Z" fill="#272A31" fill-opacity="0.44"/>
<path d="M49.9999 0H44.4443V5.55556H49.9999V0Z" fill="#272A31" fill-opacity="0.44"/>
<path d="M49.9999 11.1108H44.4443V16.6664H49.9999V11.1108Z" fill="#272A31" fill-opacity="0.44"/>
<path d="M49.9999 22.2222H44.4443V27.7777H49.9999V22.2222Z" fill="#272A31" fill-opacity="0.44"/>
<path d="M49.9999 33.3335H44.4443V38.8891H49.9999V33.3335Z" fill="#272A31" fill-opacity="0.44"/>
<path d="M49.9999 44.4443H44.4443V49.9999H49.9999V44.4443Z" fill="#272A31" fill-opacity="0.44"/>
<path d="M38.8886 0H33.333V5.55556H38.8886V0Z" fill="#272A31" fill-opacity="0.44"/>
<path d="M38.8886 11.1108H33.333V16.6664H38.8886V11.1108Z" fill="#272A31" fill-opacity="0.44"/>
<path d="M38.8886 22.2222H33.333V27.7777H38.8886V22.2222Z" fill="#272A31" fill-opacity="0.44"/>
<path d="M38.8886 33.3335H33.333V38.8891H38.8886V33.3335Z" fill="#272A31" fill-opacity="0.44"/>
<path d="M38.8886 44.4443H33.333V49.9999H38.8886V44.4443Z" fill="#272A31" fill-opacity="0.44"/>
<path d="M27.7782 0H22.2227V5.55556H27.7782V0Z" fill="#272A31" fill-opacity="0.44"/>
<path d="M27.7782 11.1108H22.2227V16.6664H27.7782V11.1108Z" fill="#272A31" fill-opacity="0.44"/>
<path d="M27.7782 22.2222H22.2227V27.7777H27.7782V22.2222Z" fill="#272A31" fill-opacity="0.44"/>
<path d="M27.7782 33.3335H22.2227V38.8891H27.7782V33.3335Z" fill="#272A31" fill-opacity="0.44"/>
<path d="M27.7782 44.4443H22.2227V49.9999H27.7782V44.4443Z" fill="#272A31" fill-opacity="0.44"/>
</svg>
