<?xml version="1.0" encoding="UTF-8"?>
<svg xmlns="http://www.w3.org/2000/svg" xmlns:xlink="http://www.w3.org/1999/xlink" viewBox="0 0 48 48" width="48px" height="48px">
<g id="surface198165756">
<path style=" stroke:none;fill-rule:nonzero;fill:rgb(100%,100%,100%);fill-opacity:1;" d="M 44 7.996094 C 42.441406 8.925781 39.308594 10.1875 37.46875 10.550781 C 37.414062 10.5625 37.371094 10.582031 37.320312 10.597656 C 35.695312 8.992188 33.464844 7.996094 31 7.996094 C 26.03125 7.996094 22 12.027344 22 16.996094 C 22 17.261719 21.976562 17.742188 22 17.996094 C 15.292969 17.996094 10.191406 14.484375 6.53125 9.996094 C 6.132812 10.996094 5.957031 12.578125 5.957031 14.0625 C 5.957031 16.863281 8.148438 19.617188 11.558594 21.320312 C 10.929688 21.484375 10.238281 21.601562 9.519531 21.601562 C 8.355469 21.601562 7.125 21.292969 6 20.367188 C 6 20.398438 6 20.433594 6 20.46875 C 6 24.382812 10.15625 27.050781 13.851562 27.792969 C 13.101562 28.234375 11.589844 28.277344 10.851562 28.277344 C 10.332031 28.277344 8.492188 28.039062 8 27.949219 C 9.027344 31.15625 12.734375 32.960938 16.269531 33.027344 C 13.507812 35.195312 11.589844 35.996094 5.929688 35.996094 L 4 35.996094 C 7.574219 38.289062 12.128906 40 16.695312 40 C 31.554688 40 40 28.675781 40 17.996094 C 40 17.824219 39.996094 17.464844 39.988281 17.105469 C 39.988281 17.066406 40 17.035156 40 16.996094 C 40 16.945312 39.984375 16.890625 39.984375 16.839844 C 39.976562 16.566406 39.972656 16.3125 39.964844 16.179688 C 41.546875 15.039062 42.914062 13.617188 44 11.996094 C 42.550781 12.640625 40.992188 13.074219 39.359375 13.269531 C 41.027344 12.269531 43.398438 9.886719 44 7.996094 Z M 44 7.996094 "/>
</g>
</svg>
